<svg width="21" height="19" viewBox="0 0 21 19" fill="none" xmlns="http://www.w3.org/2000/svg">
<path d="M17.0633 7.57389C17.0633 9.24524 16.4522 10.7892 15.4226 12.0418L20.6155 16.6553C21.1282 17.1104 21.1282 17.8496 20.6155 18.3048C20.1027 18.7599 19.2701 18.7599 18.7574 18.3048L13.5645 13.6913C12.1535 14.6089 10.4144 15.1478 8.53167 15.1478C3.81874 15.1478 0 11.7577 0 7.57389C0 3.39004 3.81874 0 8.53167 0C13.2446 0 17.0633 3.39004 17.0633 7.57389ZM8.53167 12.8174C11.7926 12.8174 14.4382 10.4687 14.4382 7.57389C14.4382 4.67906 11.7926 2.33043 8.53167 2.33043C5.27077 2.33043 2.62513 4.67906 2.62513 7.57389C2.62513 10.4687 5.27077 12.8174 8.53167 12.8174Z" fill="#047FD9"/>
</svg>
